<svg width="111" height="43" viewBox="0 0 111 43" fill="none" xmlns="http://www.w3.org/2000/svg">
<path d="M82.1787 13.3769L110.925 0.248077L110.842 0H99.1611L80.5223 9.90812C75.7183 12.468 74.3086 12.6327 72.8174 9.66004L70.498 4.95299H61.4693L43.8239 16.7602C37.2798 21.1357 34.9604 20.8064 35.7886 16.7602L38.2732 4.95299H29.9891L28.912 19.2367C28.4979 25.2654 26.923 27.6585 20.2952 31.2919L0 42.5238L0.0836784 42.7719H10.6872L60.7226 11.0651C63.042 9.57877 64.2843 9.3307 65.3614 11.0651L66.2733 12.5514C67.9297 15.276 66.5222 16.7623 62.4627 18.5801L42.3327 27.6627L42.4164 27.9108H52.2754L63.4583 22.2949C68.4296 19.8184 70.1676 19.3222 71.6588 22.2949L74.3923 27.9108H83.0905L78.2029 19.6537C76.5465 16.9291 78.0377 15.2781 82.1787 13.3791V13.3769Z" fill="black"/>
</svg>
